<svg xmlns="http://www.w3.org/2000/svg"><symbol viewBox="0 0 512 512" id="src-1"><g><path d="M256,0C114.609,0,0,114.609,0,256c0,141.391,114.609,256,256,256c141.391,0,256-114.609,256-256   C512,114.609,397.391,0,256,0z M256,472c-119.297,0-216-96.703-216-216S136.703,40,256,40s216,96.703,216,216S375.297,472,256,472z   "/><g><path d="M249.703,201.25H188v-25h19.312c6.859,0,13.422-1.219,19.5-3.594c6.172-2.375,11.438-5.641,15.797-9.797    c4.358-4.203,7.922-9.25,10.547-15.234c2.734-5.906,4.047-12.5,4.047-19.625H284v256h-34.297V201.25z"/></g></g><g/><g/><g/><g/><g/><g/><g/><g/><g/><g/><g/><g/><g/><g/><g/></symbol><symbol viewBox="0 0 512 512" id="src-2"><g><path d="M256,0C114.609,0,0,114.609,0,256c0,141.391,114.609,256,256,256c141.391,0,256-114.609,256-256   C512,114.609,397.391,0,256,0z M256,472c-119.297,0-216-96.703-216-216S136.703,40,256,40s216,96.703,216,216S375.297,472,256,472z   "/><g><path d="M176,209.75c2.531-24.406,10.969-44.141,25.375-59.219c14.344-15.031,34-22.531,58.859-22.531    c12.233,0,23.172,2.141,32.594,6.484c9.422,4.297,17.375,10.141,23.719,17.484c6.328,7.281,11.219,15.547,14.516,24.797    c3.281,9.266,4.938,18.844,4.938,28.703c0,8.625-0.984,16.391-3.062,23.266c-2.095,6.875-4.953,12.984-8.688,18.297    c-3.75,5.438-8.031,10.375-13.109,15c-4.922,4.688-10.327,9.078-16.188,13.234c-10.845,8.405-22.125,16.452-33.672,24.202    c-11.594,7.75-22.719,16.531-33.375,26.328c-3.875,3.672-7.062,7.438-9.594,11.453c-2.5,4.017-4.594,9.031-6.266,15.017h117.375    V384H178.531v-24.203c0-10.047,3.188-20,9.625-29.578c6.438-9.734,14.438-19.188,24.125-28.219    c9.625-9.031,20.188-17.828,31.781-26.359c11.609-8.516,22.531-16.766,32.891-24.781c7.844-5.984,14.031-12.359,18.672-19.234    c4.516-6.859,6.859-15.625,6.859-26.344c0-15.172-3.812-27.031-11.734-35.531c-7.781-8.484-17.938-12.734-30.516-12.734    c-15.359,0-27.531,4.703-36.453,14.109c-9,9.375-13.438,22.25-13.438,38.625L176,209.75L176,209.75z"/></g></g><g/><g/><g/><g/><g/><g/><g/><g/><g/><g/><g/><g/><g/><g/><g/></symbol><symbol viewBox="0 0 512 512" id="src-3"><g><path d="M256,0C114.609,0,0,114.609,0,256c0,141.391,114.609,256,256,256c141.391,0,256-114.609,256-256   C512,114.609,397.391,0,256,0z M256,472c-119.297,0-216-96.703-216-216S136.703,40,256,40s216,96.703,216,216S375.297,472,256,472z   "/><g><path d="M182.828,204.781c2.688-24.062,9.672-42.922,20.938-56.5C215.031,134.766,232.812,128,257.25,128    c21.156,0,37.938,5.969,50.25,17.875s18.469,27.75,18.469,47.469c0,14.125-2.562,25.375-7.781,33.781    c-5.233,8.375-13.453,14.906-24.78,19.625c5.422,1.75,10.641,4.25,15.688,7.5c5.188,3.25,9.734,7.406,13.672,12.594    c4.062,5.156,7.267,11.234,9.734,18.344c2.344,7.047,3.5,15.359,3.5,25.095c0,12.172-2.078,22.688-6.234,31.75    c-4.28,9.188-9.983,16.905-17.077,22.983c-7.234,6.219-15.642,10.938-25.047,14.188c-9.531,3.233-19.673,4.797-30.392,4.797    c-21.969,0-40.156-6.983-54.5-20.983c-14.344-13.984-23.25-34.548-26.75-62h32.562c3.188,20,8.734,34.047,16.5,42.202    c7.75,8.031,18.531,12.062,32.188,12.062c6.156,0,12.094-1.017,17.703-3.048c5.641-2.016,10.516-5.016,14.812-9.016    c4.312-4,7.734-8.734,10.392-14.281c2.5-5.688,3.702-11.905,3.702-18.655c0-13.517-4.125-25.017-12.5-34.438    c-8.25-9.375-19.641-14.094-34.108-14.094h-18.516v-28.719h18.516c6.719,0,12.422-1.062,17.108-3.281    c4.656-2.234,8.484-5.094,11.453-8.625c2.953-3.5,5.031-7.5,6.22-11.875c1.297-4.469,1.797-8.875,1.797-13.25    c0-12.375-3.406-22.109-10.25-29.156c-6.828-7.078-15.922-10.594-27.188-10.594c-6.953,0-12.797,1.281-17.656,3.984    c-4.812,2.641-8.875,6.156-12.078,10.547c-3.188,4.453-5.719,9.594-7.625,15.484c-1.859,5.875-3.219,12.109-4,18.516H182.828z"/></g></g><g/><g/><g/><g/><g/><g/><g/><g/><g/><g/><g/><g/><g/><g/><g/></symbol><symbol viewBox="0 0 512 512" id="src-4"><g><path d="M256,0C114.609,0,0,114.609,0,256c0,141.391,114.609,256,256,256c141.391,0,256-114.609,256-256   C512,114.609,397.391,0,256,0z M256,472c-119.297,0-216-96.703-216-216S136.703,40,256,40s216,96.703,216,216S375.297,472,256,472z   "/><g><path d="M274.203,384v-62.5H176v-37.203L274.203,128H303.5v164.484H336V321.5h-32.5V384H274.203z M202.438,292.484h71.766V176.969    L202.438,292.484z"/></g></g><g/><g/><g/><g/><g/><g/><g/><g/><g/><g/><g/><g/><g/><g/><g/></symbol></svg>